HIERARCHY
ROOT Hips
{
 OFFSET 0.000000 0.000000 0.000000
 CHANNELS 6 Xposition Yposition Zposition Yrotation Xrotation Zrotation
 JOINT Chest
 {
  OFFSET 0.000000 9.585900 0.002600
  CHANNELS 3 Yrotation Xrotation Zrotation
  JOINT Chest2
  {
   OFFSET 0.000000 9.601200 -0.005300
   CHANNELS 3 Yrotation Xrotation Zrotation
   JOINT Chest3
   {
    OFFSET 0.000000 9.561800 0.000000
    CHANNELS 3 Yrotation Xrotation Zrotation
    JOINT Chest4
    {
     OFFSET 0.000000 9.552100 0.000000
     CHANNELS 3 Yrotation Xrotation Zrotation
     JOINT Neck
     {
      OFFSET 0.000000 14.453000 0.000000
      CHANNELS 3 Yrotation Xrotation Zrotation
      JOINT Head
      {
       OFFSET 0.000000 8.936500 -0.011300
       CHANNELS 3 Yrotation Xrotation Zrotation
       End Site
       {
        OFFSET 0.000000 17.073600 -0.006000
       }
      }
     }
     JOINT RightCollar
     {
      OFFSET -2.921100 9.558500 0.000000
      CHANNELS 3 Yrotation Xrotation Zrotation
      JOINT RightShoulder
      {
       OFFSET -13.519700 0.000000 0.000000
       CHANNELS 3 Yrotation Xrotation Zrotation
       JOINT RightElbow
       {
        OFFSET 0.000000 -29.696600 0.000000
        CHANNELS 3 Yrotation Xrotation Zrotation
        JOINT RightWrist
        {
         OFFSET 0.000000 -24.004700 0.000000
         CHANNELS 3 Yrotation Xrotation Zrotation
         End Site
         {
          OFFSET 0.000000 -17.728500 0.000000
         }
        }
       }
      }
     }
     JOINT LeftCollar
     {
      OFFSET 2.921100 9.558500 0.000000
      CHANNELS 3 Yrotation Xrotation Zrotation
      JOINT LeftShoulder
      {
       OFFSET 13.519700 0.000000 0.000000
       CHANNELS 3 Yrotation Xrotation Zrotation
       JOINT LeftElbow
       {
        OFFSET 0.000000 -29.696600 0.000000
        CHANNELS 3 Yrotation Xrotation Zrotation
        JOINT LeftWrist
        {
         OFFSET 0.000000 -24.004700 0.000000
         CHANNELS 3 Yrotation Xrotation Zrotation
         End Site
         {
          OFFSET 0.000000 -17.728500 0.000000
         }
        }
       }
      }
     }
    }
   }
  }
 }
 JOINT RightHip
 {
  OFFSET -7.771700 -0.012900 -0.001300
  CHANNELS 3 Yrotation Xrotation Zrotation
  JOINT RightKnee
  {
   OFFSET 0.000000 -40.869800 0.001200
   CHANNELS 3 Yrotation Xrotation Zrotation
   JOINT RightAnkle
   {
    OFFSET 0.000000 -39.717900 0.002100
    CHANNELS 3 Yrotation Xrotation Zrotation
    JOINT RightToe
    {
     OFFSET 0.000000 -4.965400 11.033500
     CHANNELS 3 Yrotation Xrotation Zrotation
     End Site
     {
      OFFSET 0.000000 -1.423100 5.872300
     }
    }
   }
  }
 }
 JOINT LeftHip
 {
  OFFSET 7.771700 -0.012900 -0.001300
  CHANNELS 3 Yrotation Xrotation Zrotation
  JOINT LeftKnee
  {
   OFFSET 0.000000 -40.869800 0.001200
   CHANNELS 3 Yrotation Xrotation Zrotation
   JOINT LeftAnkle
   {
    OFFSET 0.000000 -39.717900 0.002100
    CHANNELS 3 Yrotation Xrotation Zrotation
    JOINT LeftToe
    {
     OFFSET 0.000000 -4.965400 11.033500
     CHANNELS 3 Yrotation Xrotation Zrotation
     End Site
     {
      OFFSET 0.000000 -1.423100 5.872300
     }
    }
   }
  }
 }
}
MOTION
Frames: 6
Frame Time: 0.008333
-27.057160 57.928131 13.512808 177.692582 -51.340435 -3.708094 3.353703 22.834026 3.081640 1.686890 13.070758 1.549131 2.187781 16.332499 2.018628 1.684257 13.071086 1.549388 0.890571 16.672423 3.420254 0.260889 -4.834992 6.093650 0.902657 7.237977 -1.206259 -24.254201 -11.096947 3.510095 -63.127307 -23.275294 117.650926 -11.459318 -27.596688 -36.971178 -7.728524 4.075079 0.871988 18.222187 -8.252045 0.505337 70.883085 -27.063575 -106.725999 27.600002 -27.420698 21.834568 2.493532 -20.304187 -3.521635 -32.340686 72.708257 -35.800785 7.003100 -11.463824 11.384216 0.008970 0.093595 0.067045 -5.836449 -17.757454 6.374948 85.384008 83.005966 84.452258 0.724235 -21.791515 -16.896934 -0.017693 0.049195 -0.005757
-27.050470 57.931959 13.517439 177.696198 -51.342975 -3.718243 3.352328 22.834942 3.086732 1.676882 13.069227 1.539475 2.179009 16.333853 2.010842 1.685895 13.073475 1.548223 0.791766 16.656278 3.441427 0.217644 -4.837583 6.118864 0.915146 7.232582 -1.205935 -24.247798 -11.105049 3.513835 -63.101859 -23.262046 117.638075 -11.448034 -27.599143 -36.979361 -7.743710 4.056790 0.861798 18.245670 -8.237558 0.523640 70.816136 -27.050715 -106.706286 27.576385 -27.463571 21.836001 2.476680 -20.296249 -3.498583 -32.254316 72.719812 -35.717254 6.963628 -11.512256 11.349483 0.029366 0.102519 0.073896 -5.838009 -17.755884 6.380025 85.366779 83.008582 84.444195 0.729051 -21.786158 -16.902253 -0.022713 0.046354 -0.007322
-27.044423 57.936510 13.520771 177.705821 -51.350342 -3.727590 3.339866 22.838088 3.076494 1.680173 13.072813 1.544141 2.176981 16.335065 2.008781 1.674941 13.075488 1.542378 0.722234 16.645329 3.458610 0.136736 -4.847173 6.157681 0.930265 7.227854 -1.203815 -24.250155 -11.113013 3.517253 -63.075889 -23.251627 117.627758 -11.455253 -27.599483 -36.979408 -7.735891 4.045924 0.862703 18.245778 -8.230003 0.528001 70.798922 -27.048925 -106.699093 27.571620 -27.465083 21.847230 2.465090 -20.287004 -3.488398 -32.142772 72.743967 -35.604985 6.918362 -11.541505 11.327658 0.027256 0.115514 0.077822 -5.838034 -17.749903 6.373240 85.362640 83.008633 84.450340 0.741637 -21.784116 -16.905962 -0.034143 0.045348 -0.012077
-27.037017 57.942878 13.522128 177.707165 -51.370651 -3.736953 3.336403 22.854957 3.078971 1.683278 13.075620 1.545288 2.175574 16.336694 2.006974 1.668094 13.075385 1.538546 0.701442 16.641438 3.467195 -0.003012 -4.864491 6.218911 0.938462 7.223478 -1.203315 -24.259261 -11.119704 3.521973 -63.047547 -23.245773 117.618119 -11.452445 -27.599179 -36.979414 -7.725390 4.042023 0.864322 18.199199 -8.243908 0.519718 70.802108 -27.051035 -106.671004 27.572653 -27.462822 21.873798 2.457006 -20.265845 -3.472161 -31.868538 72.818079 -35.332177 6.805288 -11.584203 11.297793 0.034742 0.111871 0.076141 -5.835928 -17.729491 6.376974 85.406502 83.008339 84.500740 0.751974 -21.782624 -16.908721 -0.043553 0.040432 -0.016302
-27.030018 57.946323 13.525057 177.693043 -51.368564 -3.731219 3.333145 22.847188 3.068473 1.682746 13.077279 1.543443 2.174676 16.338640 2.004682 1.682735 13.077319 1.543433 0.612844 16.631291 3.480148 -0.089945 -4.871120 6.256493 0.926776 7.216225 -1.205673 -24.256295 -11.121632 3.524705 -63.027322 -23.243065 117.608624 -11.446141 -27.620773 -36.980318 -7.731581 4.028598 0.860099 18.182598 -8.243523 0.520817 70.785944 -27.047773 -106.651679 27.574177 -27.432822 21.932606 2.456627 -20.260042 -3.449638 -31.810653 72.824260 -35.282501 6.801327 -11.688366 11.245193 0.015682 0.168109 0.105937 -5.827096 -17.732026 6.382020 85.415058 83.008238 84.514001 0.758789 -21.779722 -16.911118 -0.048595 0.037627 -0.019570
-27.023048 57.951037 13.526242 177.698598 -51.374872 -3.739727 3.322752 22.849681 3.060656 1.680922 13.078559 1.541063 2.154092 16.335914 1.992411 1.699324 13.083430 1.545302 0.538230 16.619684 3.498475 -0.178125 -4.876357 6.293238 0.937864 7.204518 -1.201131 -24.250925 -11.113638 3.521805 -63.026071 -23.245316 117.611991 -11.440801 -27.627772 -36.995395 -7.732319 4.005880 0.851735 18.168756 -8.239106 0.531573 70.798121 -27.053639 -106.629759 27.575302 -27.427058 21.945524 2.443300 -20.243346 -3.427663 -31.747448 72.829128 -35.228154 6.783718 -11.752835 11.220007 0.042089 0.141950 0.093090 -5.829228 -17.725420 6.385186 85.415559 83.009824 84.519464 0.765782 -21.775706 -16.913552 -0.055342 0.033923 -0.022591
